PathFileType	4	(X/Y/Z)	C:/Users/opensim2020/Desktop/walking_exp_matlab/subject03_walking12_straight_01.trc																																																																																																																																														
DataRate	CameraRate	NumFrames	NumMarkers	Units	OrigDataRate	OrigDataStartFrame	OrigNumFrames																																																																																																																																										
100	100	4	48	mm	100	581	211																																																																																																																																										
Frame#	Time	LFHD			RFHD			LBHD			RBHD			C7			T10			CLAV			STRN			RBAK			LSHO			LUPA			LELB			LFRM			LWRA			LWRB			LFIN			RSHO			RUPA			RELB			RFRM			RWRA			RWRB			RFIN			LASI			RASI			LPSI			RPSI			LTHI			LKNE			LTIB			LANK			LHEE			LTOE			RTHI			RKNE			RTIB			RANK			RHEE			RTOE			*39			*40			*41			*42			*43			*44			*45			*46			*47		
		X1	Y1	Z1	X2	Y2	Z2	X3	Y3	Z3	X4	Y4	Z4	X5	Y5	Z5	X6	Y6	Z6	X7	Y7	Z7	X8	Y8	Z8	X9	Y9	Z9	X10	Y10	Z10	X11	Y11	Z11	X12	Y12	Z12	X13	Y13	Z13	X14	Y14	Z14	X15	Y15	Z15	X16	Y16	Z16	X17	Y17	Z17	X18	Y18	Z18	X19	Y19	Z19	X20	Y20	Z20	X21	Y21	Z21	X22	Y22	Z22	X23	Y23	Z23	X24	Y24	Z24	X25	Y25	Z25	X26	Y26	Z26	X27	Y27	Z27	X28	Y28	Z28	X29	Y29	Z29	X30	Y30	Z30	X31	Y31	Z31	X32	Y32	Z32	X33	Y33	Z33	X34	Y34	Z34	X35	Y35	Z35	X36	Y36	Z36	X37	Y37	Z37	X38	Y38	Z38	X39	Y39	Z39	X40	Y40	Z40	X41	Y41	Z41	X42	Y42	Z42	X43	Y43	Z43	X44	Y44	Z44	X45	Y45	Z45	X46	Y46	Z46	X47	Y47	Z47	X48	Y48	Z48
																																																																																																																																																	
27	0.26	-1129.96411	1592.57336	-1033.24463	-1149.25977	1592.2998	-901.0155	-1248.22534	1528.85193	-1046.80334	-1262.58337	1528.75671	-916.61487	-1272.35962	1382.31689	-998.84662	-1328.11438	1077.8009	-1014.95929	-1154.58972	1298.92029	-982.67706	-1123.54724	1129.49792	-991.11078	-1345.69446	1207.83704	-924.05585	-1173.60144	1344.70117	-1140.68213	-1152.31506	1155.69189	-1217.59534	-1118.1875	1038.76672	-1225.55408	-1040.10889	943.00891	-1195.18079	-974.97882	860.00452	-1134.89209	-982.99701	844.86078	-1187.39807	-925.27979	792.58118	-1157.83484	-1227.75146	1322.09583	-832.16675	-1265.79919	1104.84644	-758.31689	-1265.90393	992.56317	-737.57953	-1274.2489	855.70215	-726.65076	-1258.06677	753.52679	-752.22333	-1294.86377	758.00409	-712.48132	-1287.79114	682.60712	-716.94318	-1190.33569	886.19177	-1115.01953	-1189.00012	913.22626	-879.07532	-1347.38354	934.6557	-1066.26184	-1346.81641	953.90552	-921.10138	-1326.88501	603.03864	-1146.8623	-1384.17957	432.83456	-1118.55835	-1521.87585	290.65503	-1123.04639	-1645.0542	114.51351	-1087.15381	-1695.90845	102.3144	-1049.86133	-1523.03271	27.78655	-1072.09167	-1170.91602	636.05774	-820.44531	-1096.3949	476.54523	-861.86261	-1126.24768	284.43839	-854.14258	-1149.01672	68.99752	-896.28467	-1196.23584	34.65878	-945.67816	-1011.5639	35.37904	-915.11823	NaN	NaN	NaN	NaN	NaN	NaN	NaN	NaN	NaN	NaN	NaN	NaN	NaN	NaN	NaN	NaN	NaN	NaN	NaN	NaN	NaN	NaN	NaN	NaN	NaN	NaN	NaN
28	0.27	-1120.68115	1594.79578	-1033.08838	-1139.56458	1594.63611	-900.78632	-1238.77649	1530.61841	-1046.2218	-1253.44739	1530.76831	-915.71613	-1261.96301	1383.92395	-997.93109	-1319.44153	1080.7533	-1012.93829	-1143.76416	1301.10205	-982.27771	-1112.06531	1131.7821	-990.77661	-1334.28979	1208.97583	-923.2309	-1163.68933	1346.57227	-1140.40857	-1144.13354	1157.16626	-1217.34668	-1111.00037	1040.02917	-1225.59741	-1033.09656	944.13062	-1195.17578	-968.1012	861.27863	-1134.89233	-976.43994	845.90894	-1187.23279	-918.62384	793.70465	-1157.63281	-1216.71167	1324.01416	-831.4776	-1253.70154	1106.37585	-757.96625	-1253.31653	994.03137	-737.61102	-1260.62573	857.04138	-727.35449	-1243.62219	755.16693	-753.06281	-1280.53223	759.15417	-713.58649	-1272.3291	684.12787	-717.81073	-1178.20337	887.51404	-1113.63599	-1176.75671	914.76514	-878.45911	-1337.34448	937.39777	-1064.31836	-1334.52893	955.83179	-919.86395	-1312.06738	603.50873	-1146.95679	-1366.49023	432.87122	-1120.80103	-1509.37378	293.72836	-1123.32837	-1641.91565	120.12345	-1084.74744	-1688.62305	112.75095	-1049.50732	-1522.06873	27.89086	-1071.13757	-1162.72717	635.80176	-819.93866	-1089.84155	475.67899	-861.98865	-1120.50854	283.89185	-853.69183	-1148.06006	68.94304	-896.37305	-1196.06689	34.97287	-945.39996	-1010.67749	34.80555	-915.55066	NaN	NaN	NaN	NaN	NaN	NaN	NaN	NaN	NaN	NaN	NaN	NaN	NaN	NaN	NaN	NaN	NaN	NaN	NaN	NaN	NaN	NaN	NaN	NaN	NaN	NaN	NaN
29	0.28	-1111.24097	1597.19373	-1032.84131	-1129.67346	1597.17163	-900.67206	-1229.08899	1532.65698	-1045.6897	-1242.66577	1532.73181	-915.41455	-1251.38135	1385.86389	-997.01318	-1305.60632	1081.37659	-1012.90186	-1132.9895	1303.55432	-981.8866	-1100.61047	1134.32324	-990.38812	-1322.79602	1210.57849	-922.03278	-1153.8241	1348.87451	-1140.06873	-1136.12842	1159.073	-1217.22278	-1104.10339	1041.58459	-1225.50269	-1026.65906	945.29901	-1195.15247	-961.73547	862.39087	-1135.02734	-970.47485	846.77246	-1187.34265	-912.70544	794.54846	-1157.83191	-1205.07727	1326.12329	-830.7088	-1241.13989	1108.30554	-757.63373	-1240.28943	995.83984	-737.66254	-1246.62866	858.84845	-727.93622	-1228.75476	757.25934	-754.19592	-1265.72729	760.76343	-714.68793	-1256.56116	685.99878	-718.9245	-1166.34216	889.62988	-1112.72192	-1164.41626	916.40082	-877.70148	-1323.41003	937.87872	-1064.21094	-1322.31128	957.80865	-918.5434	-1296.18823	603.93378	-1147.21497	-1347.29749	431.98346	-1122.71338	-1494.98694	296.94626	-1123.75183	-1632.32312	129.24713	-1083.82532	-1679.00916	124.58407	-1047.21252	-1520.51208	28.44525	-1070.41125	-1154.92212	635.87793	-820.22253	-1083.23999	474.98007	-862.4884	-1116.15198	283.3389	-854.00757	-1147.61816	68.89953	-896.30066	-1196.06897	34.93326	-945.06378	-1010.25122	34.35947	-915.97314	NaN	NaN	NaN	NaN	NaN	NaN	NaN	NaN	NaN	NaN	NaN	NaN	NaN	NaN	NaN	NaN	NaN	NaN	NaN	NaN	NaN	NaN	NaN	NaN	NaN	NaN	NaN
30	0.29	-1101.65479	1599.85913	-1032.69043	-1119.79883	1599.82947	-900.47162	-1219.33984	1534.90283	-1045.20996	-1233.23413	1534.9668	-914.69452	-1240.7937	1388.06897	-996.05493	-1294.40881	1083.33167	-1011.33417	-1122.08276	1306.14392	-981.67877	-1088.88623	1137.1167	-990.4931	-1311.13818	1212.58899	-920.41406	-1144.02271	1351.3584	-1139.70691	-1128.23621	1161.2384	-1217.00647	-1097.31445	1043.39917	-1225.26184	-1020.54956	946.62744	-1195.35376	-955.95715	863.21942	-1135.37488	-965.06665	847.55511	-1187.64209	-907.40698	795.04034	-1158.38464	-1193.24475	1328.75464	-829.96368	-1228.33594	1110.5448	-757.19226	-1226.81555	997.98694	-737.7312	-1232.08252	860.91681	-728.62274	-1213.42029	759.67889	-755.38251	-1250.28076	762.63684	-715.82782	-1240.04053	688.15735	-720.24469	-1154.5708	891.96851	-1111.52478	-1152.19263	918.18463	-876.83795	-1311.73096	939.87469	-1063.0365	-1310.18079	959.80731	-917.23199	-1279.31433	604.2179	-1147.83069	-1326.38147	430.76144	-1125.14172	-1478.13354	299.99893	-1124.35938	-1617.8385	140.92822	-1084.63733	-1666.68213	137.18674	-1044.72058	-1518.55042	28.79631	-1069.47583	-1145.77979	636.30103	-819.8432	-1076.82813	474.24701	-863.08264	-1113.04663	282.84302	-854.06934	-1147.21985	68.61012	-896.13641	-1196.20837	34.88381	-944.82556	-1010.03156	33.956	-916.47418	NaN	NaN	NaN	NaN	NaN	NaN	NaN	NaN	NaN	NaN	NaN	NaN	NaN	NaN	NaN	NaN	NaN	NaN	NaN	NaN	NaN	NaN	NaN	NaN	NaN	NaN	NaN
